<?xml version="1.0" standalone="no"?><!DOCTYPE svg PUBLIC "-//W3C//DTD SVG 1.1//EN" "http://www.w3.org/Graphics/SVG/1.1/DTD/svg11.dtd"><svg xmlns="http://www.w3.org/2000/svg" viewBox="0 0 650 400" version="1.1"><clipPath id="box"><rect x="0" y="0" width="650" height="400" style="fill:none;stroke:none;" /></clipPath><g clip-path="url(#box)"><rect x="0.00" y="0.00" width="650.00" height="400.00" style="fill:#FFFFFF;stroke:none;" /><path d="M0.00 350.00 L650.00 350.00 M0.00 300.00 L650.00 300.00 M0.00 250.00 L650.00 250.00 M0.00 200.00 L650.00 200.00 M0.00 150.00 L650.00 150.00 M0.00 100.00 L650.00 100.00 M0.00 50.00 L650.00 50.00 M0.00 0.00 L650.00 0.00 M46.00 0.00 L46.00 400.00 M96.00 0.00 L96.00 400.00 M146.00 0.00 L146.00 400.00 M196.00 0.00 L196.00 400.00 M246.00 0.00 L246.00 400.00 M296.00 0.00 L296.00 400.00 M346.00 0.00 L346.00 400.00 M396.00 0.00 L396.00 400.00 M446.00 0.00 L446.00 400.00 M496.00 0.00 L496.00 400.00 M546.00 0.00 L546.00 400.00 M596.00 0.00 L596.00 400.00 M646.00 0.00 L646.00 400.00 " style="fill:none;stroke:#D0D0D0;stroke-width:1;" /><path d="M46.98 0.00 L46.98 400.00 " style="fill:none;stroke:#000000;stroke-width:1;" /><path d="M40.48 400.04 L53.48 400.04 M40.48 350.04 L53.48 350.04 M40.48 300.04 L53.48 300.04 M40.48 250.04 L53.48 250.04 M40.48 200.04 L53.48 200.04 M40.48 150.04 L53.48 150.04 M40.48 100.04 L53.48 100.04 M40.48 50.04 L53.48 50.04 M40.48 0.04 L53.48 0.04 " style="fill:none;stroke:#000000;stroke-width:1;" /><path d="M0.00 200.04 L650.00 200.04 " style="fill:none;stroke:#000000;stroke-width:1;" /><path d="M-3.02 193.54 L-3.02 206.54 M46.98 193.54 L46.98 206.54 M96.98 193.54 L96.98 206.54 M146.98 193.54 L146.98 206.54 M196.98 193.54 L196.98 206.54 M246.98 193.54 L246.98 206.54 M296.98 193.54 L296.98 206.54 M346.98 193.54 L346.98 206.54 M396.98 193.54 L396.98 206.54 M446.98 193.54 L446.98 206.54 M496.98 193.54 L496.98 206.54 M546.98 193.54 L546.98 206.54 M596.98 193.54 L596.98 206.54 M646.98 193.54 L646.98 206.54 " style="fill:none;stroke:#000000;stroke-width:1;" /><text x="55.103637695312386" y="352.5388183593749" text-anchor="start" style="font:10px Droid Sans,Trebuchet MS,Arial,Helvetica,sans-serif;stroke:none;fill:#000000">-6</text><text x="55.103637695312386" y="302.53881835937494" text-anchor="start" style="font:10px Droid Sans,Trebuchet MS,Arial,Helvetica,sans-serif;stroke:none;fill:#000000">-4</text><text x="55.103637695312386" y="252.53881835937497" text-anchor="start" style="font:10px Droid Sans,Trebuchet MS,Arial,Helvetica,sans-serif;stroke:none;fill:#000000">-2</text><text x="55.103637695312386" y="202.538818359375" text-anchor="start" style="font:10px Droid Sans,Trebuchet MS,Arial,Helvetica,sans-serif;stroke:none;fill:#000000">0</text><text x="55.103637695312386" y="152.53881835937503" text-anchor="start" style="font:10px Droid Sans,Trebuchet MS,Arial,Helvetica,sans-serif;stroke:none;fill:#000000">2</text><text x="55.103637695312386" y="102.53881835937504" text-anchor="start" style="font:10px Droid Sans,Trebuchet MS,Arial,Helvetica,sans-serif;stroke:none;fill:#000000">4</text><text x="55.103637695312386" y="52.53881835937507" text-anchor="start" style="font:10px Droid Sans,Trebuchet MS,Arial,Helvetica,sans-serif;stroke:none;fill:#000000">6</text><text x="46.978637695312386" y="216.163818359375" text-anchor="middle" style="font:10px Droid Sans,Trebuchet MS,Arial,Helvetica,sans-serif;stroke:none;fill:#000000">0</text><text x="96.97863769531239" y="216.163818359375" text-anchor="middle" style="font:10px Droid Sans,Trebuchet MS,Arial,Helvetica,sans-serif;stroke:none;fill:#000000">2</text><text x="146.9786376953124" y="216.163818359375" text-anchor="middle" style="font:10px Droid Sans,Trebuchet MS,Arial,Helvetica,sans-serif;stroke:none;fill:#000000">4</text><text x="196.9786376953124" y="216.163818359375" text-anchor="middle" style="font:10px Droid Sans,Trebuchet MS,Arial,Helvetica,sans-serif;stroke:none;fill:#000000">6</text><text x="246.9786376953124" y="216.163818359375" text-anchor="middle" style="font:10px Droid Sans,Trebuchet MS,Arial,Helvetica,sans-serif;stroke:none;fill:#000000">8</text><text x="296.9786376953124" y="216.163818359375" text-anchor="middle" style="font:10px Droid Sans,Trebuchet MS,Arial,Helvetica,sans-serif;stroke:none;fill:#000000">10</text><text x="346.9786376953124" y="216.163818359375" text-anchor="middle" style="font:10px Droid Sans,Trebuchet MS,Arial,Helvetica,sans-serif;stroke:none;fill:#000000">12</text><text x="396.97863769531233" y="216.163818359375" text-anchor="middle" style="font:10px Droid Sans,Trebuchet MS,Arial,Helvetica,sans-serif;stroke:none;fill:#000000">14</text><text x="446.9786376953124" y="216.163818359375" text-anchor="middle" style="font:10px Droid Sans,Trebuchet MS,Arial,Helvetica,sans-serif;stroke:none;fill:#000000">16</text><text x="496.9786376953124" y="216.163818359375" text-anchor="middle" style="font:10px Droid Sans,Trebuchet MS,Arial,Helvetica,sans-serif;stroke:none;fill:#000000">18</text><text x="546.9786376953124" y="216.163818359375" text-anchor="middle" style="font:10px Droid Sans,Trebuchet MS,Arial,Helvetica,sans-serif;stroke:none;fill:#000000">20</text><text x="596.9786376953124" y="216.163818359375" text-anchor="middle" style="font:10px Droid Sans,Trebuchet MS,Arial,Helvetica,sans-serif;stroke:none;fill:#000000">22</text><path d="M72.06 -0.07 L72.06 1.18 L72.06 2.40 L72.06 3.60 L72.06 4.78 L72.06 5.94 L72.06 7.07 L72.06 8.18 L72.06 9.28 L72.06 10.35 L72.07 11.41 L72.07 12.44 L72.07 13.46 L72.07 14.46 L72.07 15.45 L72.07 16.43 L72.07 17.41 L72.07 18.40 L72.07 19.38 L72.07 20.36 L72.08 21.34 L72.08 22.33 L72.08 23.31 L72.08 24.29 L72.08 25.27 L72.08 26.26 L72.08 27.24 L72.08 28.22 L72.08 29.20 L72.09 30.18 L72.09 31.17 L72.09 32.15 L72.09 33.13 L72.09 34.11 L72.09 35.09 L72.09 36.07 L72.10 37.05 L72.10 38.03 L72.10 39.02 L72.10 40.00 L72.10 40.98 L72.10 41.96 L72.11 42.94 L72.11 43.92 L72.11 44.90 L72.11 45.88 L72.11 46.86 L72.11 47.84 L72.12 48.81 L72.12 49.79 L72.12 50.77 L72.12 51.75 L72.12 52.73 L72.13 53.71 L72.13 54.69 L72.13 55.67 L72.13 56.64 L72.14 57.62 L72.14 58.60 L72.14 59.58 L72.14 60.55 L72.14 61.53 L72.15 62.51 L72.15 63.48 L72.15 64.46 L72.16 65.44 L72.16 66.41 L72.16 67.39 L72.16 68.37 L72.17 69.34 L72.17 70.32 L72.17 71.29 L72.18 72.27 L72.18 73.24 L72.18 74.22 L72.19 75.19 L72.19 76.17 L72.19 77.14 L72.20 78.11 L72.20 79.09 L72.21 80.06 L72.21 81.03 L72.21 82.00 L72.22 82.98 L72.22 83.95 L72.23 84.92 L72.23 85.89 L72.24 86.86 L72.24 87.83 L72.25 88.80 L72.25 89.77 L72.26 90.74 L72.26 91.71 L72.27 92.68 L72.28 93.65 L72.28 94.62 L72.29 95.59 L72.30 96.56 L72.30 97.52 L72.31 98.49 L72.32 99.46 L72.32 100.42 L72.33 101.39 L72.34 102.36 L72.35 103.32 L72.36 104.29 L72.37 105.25 L72.38 106.21 L72.39 107.18 L72.40 108.14 L72.41 109.10 L72.42 110.06 L72.43 111.02 L72.44 111.98 L72.45 112.94 L72.47 113.90 L72.48 114.86 L72.49 115.82 L72.51 116.77 L72.52 117.73 L72.54 118.69 L72.56 119.64 L72.57 120.60 L72.59 121.55 L72.61 122.50 L72.63 123.45 L72.65 124.40 L72.67 125.35 L72.70 126.30 L72.72 127.25 L72.75 128.19 L72.78 129.14 L72.81 130.08 L72.84 131.02 L72.87 131.97 L72.91 132.91 L72.94 133.84 L72.98 134.78 L73.02 135.71 L73.07 136.64 L73.12 137.57 L73.17 138.50 L73.23 139.43 L73.29 140.35 L73.36 141.27 L73.43 142.19 L73.51 143.10 L73.59 144.01 L73.69 144.91 L73.79 145.81 L73.91 146.70 L74.04 147.59 L74.19 148.47 L74.36 149.33 L74.55 150.19 L74.78 151.03 L75.04 151.85 L75.37 152.65 L75.78 153.40 L76.33 154.10 L77.12 154.67 L78.49 154.92 L80.49 154.39 L82.49 153.33 L84.38 152.10 L85.91 151.02 L87.33 149.99 L88.71 148.99 L90.08 148.00 L91.47 147.02 L92.90 146.05 L94.37 145.10 L95.90 144.15 L97.53 143.22 L99.28 142.31 L101.19 141.41 L103.19 140.61 L105.19 139.94 L107.19 139.41 L109.19 139.02 L111.19 138.77 L113.19 138.66 L115.19 138.69 L117.19 138.85 L119.19 139.15 L121.19 139.57 L123.19 140.11 L125.19 140.77 L127.19 141.53 L129.19 142.40 L131.19 143.36 L133.19 144.41 L135.10 145.48 L136.88 146.54 L138.55 147.59 L140.16 148.63 L141.70 149.66 L143.19 150.69 L144.65 151.71 L146.07 152.73 L147.47 153.74 L148.84 154.76 L150.20 155.77 L151.55 156.77 L152.88 157.78 L154.21 158.78 L155.53 159.79 L156.85 160.79 L158.17 161.79 L159.48 162.78 L160.81 163.78 L162.13 164.77 L163.47 165.77 L164.81 166.76 L166.16 167.75 L167.53 168.74 L168.91 169.73 L170.31 170.72 L171.72 171.70 L173.16 172.68 L174.62 173.67 L176.11 174.65 L177.62 175.63 L179.17 176.61 L180.75 177.58 L182.37 178.56 L184.03 179.53 L185.74 180.50 L187.50 181.47 L189.32 182.43 L191.20 183.40 L193.16 184.36 L195.16 185.30 L197.16 186.20 L199.16 187.06 L201.16 187.88 L203.16 188.65 L205.16 189.39 L207.16 190.09 L209.16 190.76 L211.16 191.39 L213.16 191.98 L215.16 192.54 L217.16 193.07 L219.16 193.57 L221.16 194.03 L223.16 194.47 L225.16 194.88 L227.16 195.27 L229.16 195.63 L231.16 195.96 L233.16 196.28 L235.16 196.57 L237.16 196.84 L239.16 197.10 L241.16 197.33 L243.16 197.55 L245.16 197.76 L247.16 197.94 L249.16 198.12 L251.16 198.28 L253.16 198.43 L255.16 198.57 L257.16 198.69 L259.16 198.81 L261.16 198.92 L263.16 199.02 L265.16 199.11 L267.16 199.19 L269.16 199.27 L271.16 199.34 L273.16 199.40 L275.16 199.46 L277.16 199.51 L279.16 199.56 L281.16 199.61 L283.16 199.65 L285.16 199.69 L287.16 199.72 L289.16 199.75 L291.16 199.78 L293.16 199.80 L295.16 199.83 L297.16 199.85 L299.16 199.87 L301.16 199.88 L303.16 199.90 L305.16 199.91 L307.16 199.93 L309.16 199.94 L311.16 199.95 L313.16 199.96 L315.16 199.97 L317.16 199.97 L319.16 199.98 L321.16 199.99 L323.16 199.99 L325.16 200.00 L327.16 200.00 L329.16 200.01 L331.16 200.01 L333.16 200.01 L335.16 200.02 L337.16 200.02 L339.16 200.02 L341.16 200.02 L343.16 200.02 L345.16 200.03 L347.16 200.03 L349.16 200.03 L351.16 200.03 L353.16 200.03 L355.16 200.03 L357.16 200.03 L359.16 200.03 L361.16 200.03 L363.16 200.03 L365.16 200.03 L367.16 200.04 L369.16 200.04 L371.16 200.04 L373.16 200.04 L375.16 200.04 L377.16 200.04 L379.16 200.04 L381.16 200.04 L383.16 200.04 L385.16 200.04 L387.16 200.04 L389.16 200.04 L391.16 200.04 L393.16 200.04 L395.16 200.04 L397.16 200.04 L399.16 200.04 L401.16 200.04 L403.16 200.04 L405.16 200.04 L407.16 200.04 L409.16 200.04 L411.16 200.04 L413.16 200.04 L415.16 200.04 L417.16 200.04 L419.16 200.04 L421.16 200.04 L423.16 200.04 L425.16 200.04 L427.16 200.04 L429.16 200.04 L431.16 200.04 L433.16 200.04 L435.16 200.04 L437.16 200.04 L439.16 200.04 L441.16 200.04 L443.16 200.04 L445.16 200.04 L447.16 200.04 L449.16 200.04 L451.16 200.04 L453.16 200.04 L455.16 200.04 L457.16 200.04 L459.16 200.04 L461.16 200.04 L463.16 200.04 L465.16 200.04 L467.16 200.04 L469.16 200.04 L471.16 200.04 L473.16 200.04 L475.16 200.04 L477.16 200.04 L479.16 200.04 L481.16 200.04 L483.16 200.04 L485.16 200.04 L487.16 200.04 L489.16 200.04 L491.16 200.04 L493.16 200.04 L495.16 200.04 L497.16 200.04 L499.16 200.04 L501.16 200.04 L503.16 200.04 L505.16 200.04 L507.16 200.04 L509.16 200.04 L511.16 200.04 L513.16 200.04 L515.16 200.04 L517.16 200.04 L519.16 200.04 L521.16 200.04 L523.16 200.04 L525.16 200.04 L527.16 200.04 L529.16 200.04 L531.16 200.04 L533.16 200.04 L535.16 200.04 L537.16 200.04 L539.16 200.04 L541.16 200.04 L543.16 200.04 L545.16 200.04 L547.16 200.04 L549.16 200.04 L551.16 200.04 L553.16 200.04 L555.16 200.04 L557.16 200.04 L559.16 200.04 L561.16 200.04 L563.16 200.04 L565.16 200.04 L567.16 200.04 L569.16 200.04 L571.16 200.04 L573.16 200.04 L575.16 200.04 L577.16 200.04 L579.16 200.04 L581.16 200.04 L583.16 200.04 L585.16 200.04 L587.16 200.04 L589.16 200.04 L591.16 200.04 L593.16 200.04 L595.16 200.04 L597.16 200.04 L599.16 200.04 L601.16 200.04 L603.16 200.04 L605.16 200.04 L607.16 200.04 L609.16 200.04 L611.16 200.04 L613.16 200.04 L615.16 200.04 L617.16 200.04 L619.16 200.04 L621.16 200.04 L623.16 200.04 L625.16 200.04 L627.16 200.04 L629.16 200.04 L631.16 200.04 L633.16 200.04 L635.16 200.04 L637.16 200.04 L639.16 200.04 L641.16 200.04 L643.16 200.04 L645.16 200.04 L647.16 200.04 L649.16 200.04 " style="fill:none;stroke:#000000;stroke-width:1;" /></g></svg>