<?xml version="1.0" standalone="no"?><!DOCTYPE svg PUBLIC "-//W3C//DTD SVG 1.1//EN" "http://www.w3.org/Graphics/SVG/1.1/DTD/svg11.dtd"><svg xmlns="http://www.w3.org/2000/svg" viewBox="0 0 650 400" version="1.1"><clipPath id="box"><rect x="0" y="0" width="650" height="400" style="fill:none;stroke:none;" /></clipPath><g clip-path="url(#box)"><rect x="0.00" y="0.00" width="650.00" height="400.00" style="fill:#FFFFFF;stroke:none;" /><path d="M0.00 363.00 L650.00 363.00 M0.00 313.00 L650.00 313.00 M0.00 263.00 L650.00 263.00 M0.00 213.00 L650.00 213.00 M0.00 163.00 L650.00 163.00 M0.00 113.00 L650.00 113.00 M0.00 63.00 L650.00 63.00 M0.00 13.00 L650.00 13.00 M17.00 0.00 L17.00 400.00 M67.00 0.00 L67.00 400.00 M117.00 0.00 L117.00 400.00 M167.00 0.00 L167.00 400.00 M217.00 0.00 L217.00 400.00 M267.00 0.00 L267.00 400.00 M317.00 0.00 L317.00 400.00 M367.00 0.00 L367.00 400.00 M417.00 0.00 L417.00 400.00 M467.00 0.00 L467.00 400.00 M517.00 0.00 L517.00 400.00 M567.00 0.00 L567.00 400.00 M617.00 0.00 L617.00 400.00 " style="fill:none;stroke:#D0D0D0;stroke-width:1;" /><path d="M17.98 0.00 L17.98 400.00 " style="fill:none;stroke:#000000;stroke-width:1;" /><path d="M11.48 413.04 L24.48 413.04 M11.48 363.04 L24.48 363.04 M11.48 313.04 L24.48 313.04 M11.48 263.04 L24.48 263.04 M11.48 213.04 L24.48 213.04 M11.48 163.04 L24.48 163.04 M11.48 113.04 L24.48 113.04 M11.48 63.04 L24.48 63.04 M11.48 13.04 L24.48 13.04 " style="fill:none;stroke:#000000;stroke-width:1;" /><path d="M0.00 113.04 L650.00 113.04 " style="fill:none;stroke:#000000;stroke-width:1;" /><path d="M-32.02 106.54 L-32.02 119.54 M17.98 106.54 L17.98 119.54 M67.98 106.54 L67.98 119.54 M117.98 106.54 L117.98 119.54 M167.98 106.54 L167.98 119.54 M217.98 106.54 L217.98 119.54 M267.98 106.54 L267.98 119.54 M317.98 106.54 L317.98 119.54 M367.98 106.54 L367.98 119.54 M417.98 106.54 L417.98 119.54 M467.98 106.54 L467.98 119.54 M517.98 106.54 L517.98 119.54 M567.98 106.54 L567.98 119.54 M617.98 106.54 L617.98 119.54 " style="fill:none;stroke:#000000;stroke-width:1;" /><text x="26.10363769531236" y="365.5388183593744" text-anchor="start" style="font:10px Droid Sans,Trebuchet MS,Arial,Helvetica,sans-serif;stroke:none;fill:#000000">-10</text><text x="26.10363769531236" y="315.53881835937443" text-anchor="start" style="font:10px Droid Sans,Trebuchet MS,Arial,Helvetica,sans-serif;stroke:none;fill:#000000">-8</text><text x="26.10363769531236" y="265.53881835937443" text-anchor="start" style="font:10px Droid Sans,Trebuchet MS,Arial,Helvetica,sans-serif;stroke:none;fill:#000000">-6</text><text x="26.10363769531236" y="215.53881835937446" text-anchor="start" style="font:10px Droid Sans,Trebuchet MS,Arial,Helvetica,sans-serif;stroke:none;fill:#000000">-4</text><text x="26.10363769531236" y="165.53881835937452" text-anchor="start" style="font:10px Droid Sans,Trebuchet MS,Arial,Helvetica,sans-serif;stroke:none;fill:#000000">-2</text><text x="26.10363769531236" y="115.53881835937453" text-anchor="start" style="font:10px Droid Sans,Trebuchet MS,Arial,Helvetica,sans-serif;stroke:none;fill:#000000">0</text><text x="26.10363769531236" y="65.53881835937455" text-anchor="start" style="font:10px Droid Sans,Trebuchet MS,Arial,Helvetica,sans-serif;stroke:none;fill:#000000">2</text><text x="26.10363769531236" y="15.538818359374565" text-anchor="start" style="font:10px Droid Sans,Trebuchet MS,Arial,Helvetica,sans-serif;stroke:none;fill:#000000">4</text><text x="17.97863769531236" y="129.16381835937455" text-anchor="middle" style="font:10px Droid Sans,Trebuchet MS,Arial,Helvetica,sans-serif;stroke:none;fill:#000000">0</text><text x="67.97863769531236" y="129.16381835937455" text-anchor="middle" style="font:10px Droid Sans,Trebuchet MS,Arial,Helvetica,sans-serif;stroke:none;fill:#000000">2</text><text x="117.97863769531236" y="129.16381835937455" text-anchor="middle" style="font:10px Droid Sans,Trebuchet MS,Arial,Helvetica,sans-serif;stroke:none;fill:#000000">4</text><text x="167.97863769531236" y="129.16381835937455" text-anchor="middle" style="font:10px Droid Sans,Trebuchet MS,Arial,Helvetica,sans-serif;stroke:none;fill:#000000">6</text><text x="217.9786376953124" y="129.16381835937455" text-anchor="middle" style="font:10px Droid Sans,Trebuchet MS,Arial,Helvetica,sans-serif;stroke:none;fill:#000000">8</text><text x="267.9786376953124" y="129.16381835937455" text-anchor="middle" style="font:10px Droid Sans,Trebuchet MS,Arial,Helvetica,sans-serif;stroke:none;fill:#000000">10</text><text x="317.9786376953124" y="129.16381835937455" text-anchor="middle" style="font:10px Droid Sans,Trebuchet MS,Arial,Helvetica,sans-serif;stroke:none;fill:#000000">12</text><text x="367.97863769531233" y="129.16381835937455" text-anchor="middle" style="font:10px Droid Sans,Trebuchet MS,Arial,Helvetica,sans-serif;stroke:none;fill:#000000">14</text><text x="417.9786376953124" y="129.16381835937455" text-anchor="middle" style="font:10px Droid Sans,Trebuchet MS,Arial,Helvetica,sans-serif;stroke:none;fill:#000000">16</text><text x="467.9786376953124" y="129.16381835937455" text-anchor="middle" style="font:10px Droid Sans,Trebuchet MS,Arial,Helvetica,sans-serif;stroke:none;fill:#000000">18</text><text x="517.9786376953124" y="129.16381835937455" text-anchor="middle" style="font:10px Droid Sans,Trebuchet MS,Arial,Helvetica,sans-serif;stroke:none;fill:#000000">20</text><text x="567.9786376953124" y="129.16381835937455" text-anchor="middle" style="font:10px Droid Sans,Trebuchet MS,Arial,Helvetica,sans-serif;stroke:none;fill:#000000">22</text><text x="617.9786376953124" y="129.16381835937455" text-anchor="middle" style="font:10px Droid Sans,Trebuchet MS,Arial,Helvetica,sans-serif;stroke:none;fill:#000000">24</text><path d="M42.98 61.65 L42.98 68.83 L42.98 71.82 L42.98 73.73 L42.98 75.14 L42.98 76.26 L42.98 77.18 L42.99 78.03 L42.99 78.88 L42.99 79.73 L42.99 80.59 L42.99 81.44 L43.00 82.29 L43.00 83.14 L43.00 84.00 L43.01 84.85 L43.01 85.70 L43.02 86.55 L43.02 87.40 L43.03 88.25 L43.04 89.10 L43.05 89.94 L43.06 90.79 L43.07 91.64 L43.09 92.48 L43.11 93.32 L43.14 94.16 L43.16 95.00 L43.20 95.84 L43.24 96.67 L43.29 97.50 L43.35 98.32 L43.42 99.14 L43.51 99.96 L43.61 100.76 L43.75 101.56 L43.91 102.34 L44.12 103.12 L44.40 103.87 L44.77 104.59 L45.27 105.27 L46.01 105.90 L47.21 106.40 L49.21 106.63 L51.21 106.53 L53.21 106.29 L55.21 106.00 L57.21 105.68 L59.21 105.36 L61.21 105.06 L63.21 104.77 L65.21 104.51 L67.21 104.27 L69.21 104.06 L71.21 103.87 L73.21 103.71 L75.21 103.57 L77.21 103.46 L79.21 103.38 L81.21 103.33 L83.21 103.29 L85.21 103.29 L87.21 103.30 L89.21 103.35 L91.21 103.41 L93.21 103.50 L95.21 103.60 L97.21 103.74 L99.21 103.89 L101.21 104.06 L103.21 104.25 L105.21 104.47 L107.21 104.70 L109.21 104.95 L111.21 105.22 L113.21 105.51 L115.21 105.81 L117.21 106.14 L119.21 106.48 L121.21 106.83 L123.21 107.21 L125.21 107.60 L127.21 108.01 L129.21 108.43 L131.21 108.87 L133.21 109.32 L135.21 109.79 L137.21 110.27 L139.21 110.77 L141.21 111.28 L143.21 111.81 L145.21 112.35 L147.21 112.90 L149.21 113.47 L151.21 114.04 L153.21 114.64 L155.21 115.24 L157.21 115.86 L159.21 116.49 L161.21 117.13 L163.21 117.79 L165.21 118.45 L167.21 119.13 L169.21 119.82 L171.21 120.52 L173.21 121.24 L175.21 121.96 L177.21 122.70 L179.21 123.44 L181.21 124.20 L183.21 124.96 L185.21 125.74 L187.21 126.53 L189.21 127.33 L191.21 128.14 L193.21 128.95 L195.21 129.78 L197.21 130.62 L199.21 131.47 L201.21 132.33 L203.21 133.19 L205.21 134.07 L207.21 134.95 L209.21 135.85 L211.21 136.75 L213.21 137.66 L215.21 138.59 L217.21 139.52 L219.21 140.45 L221.21 141.40 L223.21 142.36 L225.21 143.32 L227.21 144.30 L229.21 145.28 L231.21 146.27 L233.21 147.26 L235.21 148.27 L237.20 149.28 L239.17 150.29 L241.13 151.29 L243.07 152.30 L245.00 153.31 L246.91 154.31 L248.82 155.32 L250.71 156.33 L252.58 157.33 L254.45 158.34 L256.30 159.35 L258.14 160.35 L259.97 161.36 L261.79 162.37 L263.59 163.37 L265.39 164.38 L267.18 165.38 L268.95 166.39 L270.72 167.39 L272.48 168.40 L274.23 169.40 L275.97 170.41 L277.70 171.41 L279.42 172.42 L281.13 173.42 L282.83 174.43 L284.53 175.43 L286.22 176.44 L287.90 177.44 L289.57 178.45 L291.24 179.45 L292.90 180.46 L294.55 181.46 L296.19 182.47 L297.83 183.47 L299.46 184.47 L301.08 185.48 L302.70 186.48 L304.31 187.49 L305.91 188.49 L307.51 189.49 L309.10 190.50 L310.69 191.50 L312.27 192.50 L313.84 193.51 L315.41 194.51 L316.97 195.52 L318.53 196.52 L320.08 197.52 L321.63 198.53 L323.17 199.53 L324.70 200.53 L326.23 201.54 L327.76 202.54 L329.28 203.54 L330.79 204.55 L332.30 205.55 L333.81 206.55 L335.31 207.56 L336.81 208.56 L338.30 209.56 L339.79 210.56 L341.27 211.57 L342.75 212.57 L344.22 213.57 L345.69 214.58 L347.16 215.58 L348.62 216.58 L350.07 217.58 L351.53 218.59 L352.98 219.59 L354.42 220.59 L355.86 221.60 L357.30 222.60 L358.74 223.60 L360.17 224.60 L361.59 225.61 L363.01 226.61 L364.43 227.61 L365.85 228.61 L367.26 229.62 L368.67 230.62 L370.07 231.62 L371.47 232.62 L372.87 233.63 L374.27 234.63 L375.66 235.63 L377.05 236.63 L378.43 237.63 L379.81 238.64 L381.19 239.64 L382.57 240.64 L383.94 241.64 L385.31 242.65 L386.67 243.65 L388.04 244.65 L389.40 245.65 L390.75 246.65 L392.11 247.66 L393.46 248.66 L394.81 249.66 L396.15 250.66 L397.50 251.67 L398.84 252.67 L400.17 253.67 L401.51 254.67 L402.84 255.67 L404.17 256.68 L405.50 257.68 L406.82 258.68 L408.14 259.68 L409.46 260.68 L410.78 261.69 L412.09 262.69 L413.40 263.69 L414.71 264.69 L416.02 265.69 L417.32 266.69 L418.62 267.70 L419.92 268.70 L421.22 269.70 L422.51 270.70 L423.80 271.70 L425.09 272.71 L426.38 273.71 L427.66 274.71 L428.95 275.71 L430.23 276.71 L431.51 277.71 L432.78 278.72 L434.06 279.72 L435.33 280.72 L436.60 281.72 L437.87 282.72 L439.13 283.72 L440.39 284.73 L441.66 285.73 L442.91 286.73 L444.17 287.73 L445.43 288.73 L446.68 289.73 L447.93 290.74 L449.18 291.74 L450.43 292.74 L451.67 293.74 L452.92 294.74 L454.16 295.74 L455.40 296.75 L456.63 297.75 L457.87 298.75 L459.10 299.75 L460.34 300.75 L461.57 301.75 L462.79 302.75 L464.02 303.76 L465.24 304.76 L466.47 305.76 L467.69 306.76 L468.91 307.76 L470.13 308.76 L471.34 309.76 L472.56 310.77 L473.77 311.77 L474.98 312.77 L476.19 313.77 L477.40 314.77 L478.60 315.77 L479.80 316.77 L481.01 317.78 L482.21 318.78 L483.41 319.78 L484.60 320.78 L485.80 321.78 L486.99 322.78 L488.19 323.78 L489.38 324.78 L490.57 325.79 L491.76 326.79 L492.94 327.79 L494.13 328.79 L495.31 329.79 L496.49 330.79 L497.67 331.79 L498.85 332.79 L500.03 333.80 L501.21 334.80 L502.38 335.80 L503.55 336.80 L504.73 337.80 L505.90 338.80 L507.06 339.80 L508.23 340.80 L509.40 341.81 L510.56 342.81 L511.73 343.81 L512.89 344.81 L514.05 345.81 L515.21 346.81 L516.36 347.81 L517.52 348.81 L518.68 349.82 L519.83 350.82 L520.98 351.82 L522.13 352.82 L523.28 353.82 L524.43 354.82 L525.58 355.82 L526.72 356.82 L527.87 357.82 L529.01 358.83 L530.15 359.83 L531.29 360.83 L532.43 361.83 L533.57 362.83 L534.71 363.83 L535.84 364.83 L536.98 365.83 L538.11 366.83 L539.24 367.84 L540.37 368.84 L541.50 369.84 L542.63 370.84 L543.76 371.84 L544.88 372.84 L546.01 373.84 L547.13 374.84 L548.26 375.84 L549.38 376.84 L550.50 377.85 L551.62 378.85 L552.73 379.85 L553.85 380.85 L554.97 381.85 L556.08 382.85 L557.19 383.85 L558.31 384.85 L559.42 385.85 L560.53 386.85 L561.64 387.86 L562.74 388.86 L563.85 389.86 L564.96 390.86 L566.06 391.86 L567.16 392.86 L568.27 393.86 L569.37 394.86 L570.47 395.86 L571.57 396.86 L572.67 397.87 L573.76 398.87 L574.86 399.87 L575.95 400.87 " style="fill:none;stroke:#000000;stroke-width:1;" /><path d="M42.98 1.16 L42.98 15.54 L42.98 21.51 L42.98 25.34 L42.98 28.16 L42.98 30.40 L42.98 32.25 L42.99 33.83 L42.99 35.21 L42.99 36.44 L42.99 37.53 L42.99 38.53 L42.99 39.45 L42.99 40.36 L42.99 41.28 L42.99 42.20 L43.00 43.12 L43.00 44.04 L43.00 44.96 L43.00 45.87 L43.00 46.79 L43.01 47.71 L43.01 48.63 L43.01 49.55 L43.01 50.46 L43.02 51.38 L43.02 52.30 L43.02 53.22 L43.03 54.13 L43.03 55.05 L43.04 55.97 L43.04 56.88 L43.05 57.80 L43.05 58.72 L43.06 59.63 L43.07 60.55 L43.07 61.47 L43.08 62.38 L43.09 63.30 L43.10 64.21 L43.11 65.13 L43.13 66.04 L43.14 66.96 L43.15 67.87 L43.17 68.79 L43.19 69.70 L43.21 70.62 L43.23 71.53 L43.25 72.44 L43.28 73.35 L43.30 74.26 L43.34 75.18 L43.37 76.09 L43.41 77.00 L43.45 77.91 L43.49 78.81 L43.54 79.72 L43.59 80.63 L43.65 81.53 L43.72 82.44 L43.79 83.34 L43.87 84.25 L43.96 85.15 L44.06 86.05 L44.17 86.95 L44.29 87.84 L44.42 88.74 L44.57 89.63 L44.74 90.52 L44.93 91.41 L45.15 92.30 L45.39 93.18 L45.66 94.07 L45.97 94.94 L46.32 95.82 L46.72 96.69 L47.18 97.56 L47.71 98.42 L48.33 99.28 L49.05 100.13 L49.90 100.97 L50.90 101.81 L52.09 102.64 L53.52 103.47 L55.25 104.30 L57.25 105.08 L59.25 105.75 L61.25 106.33 L63.25 106.85 L65.25 107.34 L67.25 107.79 L69.25 108.22 L71.25 108.64 L73.25 109.05 L75.25 109.46 L77.25 109.86 L79.25 110.27 L81.25 110.68 L83.25 111.09 L85.25 111.51 L87.25 111.94 L89.25 112.38 L91.25 112.82 L93.25 113.27 L95.25 113.74 L97.25 114.21 L99.25 114.70 L101.25 115.19 L103.25 115.70 L105.25 116.21 L107.25 116.74 L109.25 117.28 L111.25 117.83 L113.25 118.39 L115.25 118.96 L117.25 119.54 L119.25 120.14 L121.25 120.74 L123.25 121.36 L125.25 121.98 L127.25 122.62 L129.25 123.27 L131.25 123.93 L133.25 124.60 L135.25 125.28 L137.25 125.97 L139.25 126.67 L141.25 127.39 L143.25 128.11 L145.25 128.84 L147.25 129.58 L149.25 130.34 L151.25 131.10 L153.25 131.87 L155.25 132.66 L157.25 133.45 L159.25 134.25 L161.25 135.06 L163.25 135.88 L165.25 136.72 L167.25 137.56 L169.25 138.40 L171.25 139.26 L173.25 140.13 L175.25 141.01 L177.25 141.89 L179.25 142.79 L181.25 143.69 L183.25 144.60 L185.25 145.52 L187.25 146.45 L189.25 147.38 L191.25 148.33 L193.25 149.28 L195.25 150.25 L197.25 151.22 L199.25 152.19 L201.25 153.18 L203.25 154.17 L205.25 155.18 L207.25 156.18 L209.23 157.19 L211.20 158.20 L213.15 159.21 L215.09 160.21 L217.01 161.22 L218.92 162.23 L220.82 163.23 L222.70 164.24 L224.57 165.25 L226.43 166.25 L228.28 167.26 L230.12 168.26 L231.95 169.27 L233.76 170.28 L235.57 171.28 L237.36 172.29 L239.15 173.29 L240.92 174.30 L242.69 175.30 L244.44 176.31 L246.19 177.31 L247.93 178.32 L249.66 179.32 L251.38 180.33 L253.09 181.33 L254.80 182.34 L256.49 183.34 L258.18 184.35 L259.86 185.35 L261.54 186.36 L263.20 187.36 L264.86 188.37 L266.51 189.37 L268.16 190.37 L269.80 191.38 L271.43 192.38 L273.05 193.39 L274.67 194.39 L276.28 195.39 L277.88 196.40 L279.48 197.40 L281.08 198.41 L282.66 199.41 L284.24 200.41 L285.82 201.42 L287.39 202.42 L288.95 203.42 L290.51 204.43 L292.06 205.43 L293.61 206.43 L295.15 207.44 L296.69 208.44 L298.22 209.44 L299.75 210.45 L301.27 211.45 L302.79 212.45 L304.30 213.46 L305.81 214.46 L307.31 215.46 L308.81 216.47 L310.30 217.47 L311.79 218.47 L313.28 219.47 L314.76 220.48 L316.23 221.48 L317.70 222.48 L319.17 223.49 L320.63 224.49 L322.09 225.49 L323.55 226.49 L325.00 227.50 L326.45 228.50 L327.89 229.50 L329.33 230.51 L330.77 231.51 L332.20 232.51 L333.63 233.51 L335.05 234.52 L336.47 235.52 L337.89 236.52 L339.30 237.52 L340.71 238.53 L342.12 239.53 L343.52 240.53 L344.92 241.53 L346.32 242.54 L347.71 243.54 L349.10 244.54 L350.49 245.54 L351.87 246.54 L353.25 247.55 L354.63 248.55 L356.01 249.55 L357.38 250.55 L358.74 251.56 L360.11 252.56 L361.47 253.56 L362.83 254.56 L364.19 255.56 L365.54 256.57 L366.89 257.57 L368.24 258.57 L369.58 259.57 L370.92 260.58 L372.26 261.58 L373.60 262.58 L374.93 263.58 L376.27 264.58 L377.59 265.59 L378.92 266.59 L380.24 267.59 L381.56 268.59 L382.88 269.59 L384.20 270.59 L385.51 271.60 L386.82 272.60 L388.13 273.60 L389.44 274.60 L390.74 275.60 L392.04 276.61 L393.34 277.61 L394.63 278.61 L395.93 279.61 L397.22 280.61 L398.51 281.61 L399.80 282.62 L401.08 283.62 L402.36 284.62 L403.64 285.62 L404.92 286.62 L406.20 287.63 L407.47 288.63 L408.74 289.63 L410.01 290.63 L411.28 291.63 L412.54 292.63 L413.81 293.64 L415.07 294.64 L416.33 295.64 L417.58 296.64 L418.84 297.64 L420.09 298.64 L421.34 299.64 L422.59 300.65 L423.84 301.65 L425.08 302.65 L426.33 303.65 L427.57 304.65 L428.81 305.65 L430.05 306.66 L431.28 307.66 L432.51 308.66 L433.75 309.66 L434.98 310.66 L436.20 311.66 L437.43 312.66 L438.66 313.67 L439.88 314.67 L441.10 315.67 L442.32 316.67 L443.54 317.67 L444.75 318.67 L445.97 319.67 L447.18 320.68 L448.39 321.68 L449.60 322.68 L450.81 323.68 L452.01 324.68 L453.22 325.68 L454.42 326.68 L455.62 327.69 L456.82 328.69 L458.02 329.69 L459.21 330.69 L460.41 331.69 L461.60 332.69 L462.79 333.69 L463.98 334.69 L465.17 335.70 L466.36 336.70 L467.54 337.70 L468.72 338.70 L469.91 339.70 L471.09 340.70 L472.27 341.70 L473.44 342.71 L474.62 343.71 L475.79 344.71 L476.97 345.71 L478.14 346.71 L479.31 347.71 L480.48 348.71 L481.65 349.71 L482.81 350.71 L483.98 351.72 L485.14 352.72 L486.30 353.72 L487.46 354.72 L488.62 355.72 L489.78 356.72 L490.94 357.72 L492.09 358.72 L493.24 359.73 L494.40 360.73 L495.55 361.73 L496.70 362.73 L497.85 363.73 L498.99 364.73 L500.14 365.73 L501.28 366.73 L502.43 367.73 L503.57 368.74 L504.71 369.74 L505.85 370.74 L506.99 371.74 L508.13 372.74 L509.26 373.74 L510.40 374.74 L511.53 375.74 L512.66 376.74 L513.79 377.75 L514.92 378.75 L516.05 379.75 L517.18 380.75 L518.31 381.75 L519.43 382.75 L520.55 383.75 L521.68 384.75 L522.80 385.75 L523.92 386.75 L525.04 387.76 L526.16 388.76 L527.27 389.76 L528.39 390.76 L529.50 391.76 L530.62 392.76 L531.73 393.76 L532.84 394.76 L533.95 395.76 L535.06 396.76 L536.17 397.77 L537.28 398.77 L538.38 399.77 L539.49 400.77 " style="fill:none;stroke:#000000;stroke-width:1;" /></g></svg>